<?xml version="1.0" standalone="no"?>
<!DOCTYPE svg PUBLIC "-//W3C//DTD SVG 20010904//EN"
 "http://www.w3.org/TR/2001/REC-SVG-20010904/DTD/svg10.dtd">
<svg version="1.0" xmlns="http://www.w3.org/2000/svg"
 width="1080.000000pt" height="809.000000pt" viewBox="0 0 1080.000000 809.000000"
 preserveAspectRatio="xMidYMid meet">

<g transform="translate(0.000000,809.000000) scale(0.100000,-0.100000)"
fill="#000000" stroke="none">
<path d="M2837 5494 c-2 -2 -36 -8 -76 -14 -79 -11 -97 -18 -84 -30 4 -5 49
-2 98 5 50 8 132 14 183 15 83 0 101 -4 178 -34 64 -26 91 -33 108 -26 35 13
39 38 11 66 l-25 25 -194 -2 c-107 -1 -197 -3 -199 -5z"/>
<path d="M3698 5475 c-3 -3 -37 -10 -74 -15 -70 -8 -87 -12 -209 -50 -38 -11
-88 -26 -110 -31 -21 -6 -44 -14 -50 -18 -5 -5 -39 -24 -75 -43 -252 -136
-369 -227 -498 -389 -88 -110 -184 -289 -233 -434 -7 -22 -17 -44 -21 -49 -4
-6 -8 -20 -8 -32 0 -13 -4 -26 -10 -29 -5 -3 -10 -17 -10 -30 0 -13 -4 -26 -9
-29 -5 -3 -11 -18 -14 -33 -2 -16 -11 -49 -20 -76 -8 -26 -11 -49 -6 -53 10
-5 13 2 85 176 50 120 59 139 127 255 89 155 137 204 408 425 160 130 497 303
630 324 20 3 42 7 50 10 83 27 422 25 492 -3 16 -6 39 -11 53 -11 13 0 32 -5
42 -10 9 -6 37 -18 62 -29 25 -10 82 -53 131 -98 81 -75 89 -81 142 -87 91
-12 197 12 112 25 -161 25 -191 35 -215 73 -38 62 -130 139 -210 176 -25 11
-56 27 -70 34 -26 13 -68 25 -153 45 -48 11 -329 16 -339 6z"/>
<path d="M2700 5370 c0 -5 5 -10 10 -10 6 0 10 5 10 10 0 6 -4 10 -10 10 -5 0
-10 -4 -10 -10z"/>
<path d="M2760 5333 c0 -3 11 -21 26 -40 14 -18 30 -47 36 -63 11 -32 26 -38
46 -18 23 23 12 48 -39 88 -48 38 -69 48 -69 33z"/>
<path d="M4775 5150 c3 -5 10 -10 16 -10 5 0 9 5 9 10 0 6 -7 10 -16 10 -8 0
-12 -4 -9 -10z"/>
<path d="M4860 5150 c0 -5 5 -10 10 -10 6 0 10 -8 10 -17 0 -12 3 -14 10 -7
14 14 2 44 -16 44 -8 0 -14 -4 -14 -10z"/>
<path d="M4185 5130 c-3 -5 -14 -10 -23 -10 -10 0 -33 -14 -52 -30 l-35 -30
22 -16 c12 -9 32 -24 44 -35 25 -21 69 -25 87 -7 22 22 13 34 -30 44 -52 11
-59 33 -19 57 39 23 45 22 85 -13 52 -46 93 -19 43 28 -17 16 -36 22 -70 22
-25 0 -49 -4 -52 -10z"/>
<path d="M4853 5064 c-3 -8 -17 -20 -32 -26 -17 -7 -21 -12 -12 -15 7 -3 27 9
44 26 18 17 26 31 19 31 -7 0 -15 -7 -19 -16z"/>
<path d="M4730 5010 c-8 -5 -48 -10 -88 -10 -46 0 -71 -4 -67 -10 16 -25 205
-5 205 23 0 10 -32 9 -50 -3z"/>
<path d="M4443 5003 c-13 -2 -23 -8 -23 -12 0 -12 -69 -39 -118 -46 -23 -4
-40 -11 -37 -16 7 -11 54 -5 122 16 29 8 63 13 76 10 19 -5 25 -2 30 16 6 20
-8 41 -23 37 -3 0 -15 -3 -27 -5z"/>
<path d="M4765 4919 c-125 -17 -161 -25 -142 -33 9 -5 34 -5 55 -2 20 4 59 10
86 13 l49 5 -7 -28 c-7 -26 -6 -27 8 -14 17 17 32 71 20 68 -5 0 -36 -5 -69
-9z"/>
<path d="M4680 4790 c0 -5 4 -10 9 -10 6 0 13 5 16 10 3 6 -1 10 -9 10 -9 0
-16 -4 -16 -10z"/>
<path d="M4255 4765 c-160 -24 -192 -39 -221 -101 -20 -41 -7 -64 37 -64 22 0
40 13 80 60 29 32 64 63 78 69 14 5 86 12 160 15 124 5 151 9 140 20 -12 13
-194 13 -274 1z"/>
<path d="M4600 4770 c0 -5 9 -10 19 -10 11 0 23 5 26 10 4 6 -5 10 -19 10 -14
0 -26 -4 -26 -10z"/>
<path d="M3847 4653 c-4 -3 -7 -20 -7 -38 0 -67 -79 -179 -165 -233 -59 -38
-144 -78 -195 -92 -81 -23 -110 -34 -110 -42 0 -11 68 -10 111 2 20 6 56 12
80 15 76 8 123 16 144 25 72 31 132 61 145 72 20 18 60 75 60 86 0 6 7 23 15
38 19 37 19 107 0 144 -12 23 -23 30 -44 30 -15 0 -31 -3 -34 -7z"/>
<path d="M3525 4573 c-38 -42 -93 -93 -122 -114 -43 -32 -103 -109 -103 -131
0 -3 32 27 70 67 39 39 99 91 134 115 61 41 121 113 110 131 -9 15 -18 9 -89
-68z"/>
<path d="M4293 4600 c-90 -54 -60 -139 62 -175 95 -28 119 -62 73 -105 -26
-24 -83 -27 -135 -5 -45 19 -53 19 -53 -1 0 -23 61 -44 127 -44 79 0 118 29
118 90 0 51 -24 73 -105 96 -73 21 -100 39 -100 68 0 50 61 70 153 51 46 -9
50 8 7 30 -40 21 -108 19 -147 -5z"/>
<path d="M4672 4608 c-16 -20 -152 -313 -152 -329 0 -24 31 -4 52 34 l23 42
95 0 94 0 20 -40 c19 -36 56 -60 56 -36 0 11 -77 180 -125 276 -32 62 -45 74
-63 53z m58 -122 c17 -41 29 -79 25 -85 -7 -12 -114 -15 -131 -3 -8 5 -1 30
24 85 20 42 39 77 43 77 3 0 21 -33 39 -74z"/>
<path d="M4937 4613 c-4 -3 -7 -82 -7 -175 0 -156 1 -169 18 -166 13 2 18 16
22 53 5 50 5 50 44 53 60 5 78 -4 115 -58 31 -47 49 -59 64 -44 4 4 -10 29
-29 56 l-36 48 36 40 c61 68 46 143 -38 181 -41 18 -174 27 -189 12z m182 -48
c47 -24 55 -77 18 -120 -20 -24 -30 -27 -92 -28 l-70 -2 -3 83 -3 82 61 0 c34
0 74 -6 89 -15z"/>
<path d="M5282 4443 l3 -168 113 -3 c94 -2 112 0 112 12 0 12 -18 16 -92 18
l-93 3 -3 153 c-2 144 -4 152 -23 152 -19 0 -19 -6 -17 -167z"/>
<path d="M5783 4594 c-124 -62 -136 -224 -21 -294 60 -36 200 -18 216 28 7 21
-28 25 -68 7 -54 -24 -100 -14 -139 31 -45 51 -44 108 4 157 45 47 81 54 136
28 36 -18 45 -19 57 -8 18 19 -5 42 -56 57 -52 14 -92 12 -129 -6z"/>
<path d="M6077 4603 c-4 -3 -7 -78 -7 -165 l0 -158 118 0 c65 0 121 3 125 6 3
3 3 12 0 20 -4 10 -26 14 -89 14 -91 0 -104 8 -104 64 0 36 32 50 102 43 46
-4 61 -2 65 9 9 23 -3 27 -71 25 -69 -2 -96 12 -96 50 0 50 14 57 102 56 79
-2 83 -1 86 21 3 22 2 22 -111 22 -62 0 -117 -3 -120 -7z"/>
<path d="M6505 4603 c-89 -23 -141 -124 -110 -213 18 -52 37 -75 78 -95 44
-22 135 -19 175 5 59 36 28 65 -38 35 -55 -25 -101 -14 -140 33 -54 66 -29
157 54 190 36 14 41 14 83 -7 35 -17 48 -19 59 -10 23 19 17 29 -28 49 -41 19
-91 23 -133 13z"/>
<path d="M3250 4570 c-8 -5 -27 -10 -42 -10 -15 0 -30 -4 -33 -10 -3 -5 -16
-10 -29 -10 -25 0 -139 -44 -170 -66 -11 -8 -28 -14 -38 -14 -10 0 -18 -4 -18
-10 0 -5 -17 -18 -37 -29 -32 -16 -103 -82 -165 -151 -43 -48 -147 -220 -133
-220 4 0 50 44 103 98 103 103 150 132 327 202 44 18 103 43 132 56 28 13 57
24 63 24 6 0 32 11 59 26 45 23 101 87 101 114 0 13 -100 13 -120 0z"/>
<path d="M2095 4088 c-48 -17 -168 -75 -194 -95 -95 -72 -162 -154 -112 -138
82 26 223 38 286 24 127 -28 231 -103 331 -237 65 -87 104 -132 116 -132 21 0
3 61 -50 169 -33 67 -80 123 -122 145 -14 7 -34 17 -45 23 -55 29 -195 63
-292 70 -88 7 -100 25 -48 70 64 56 106 70 247 78 90 5 131 11 139 21 10 12
-7 14 -107 13 -66 -1 -132 -6 -149 -11z"/>
<path d="M5032 4030 c0 -14 2 -19 5 -12 2 6 2 18 0 25 -3 6 -5 1 -5 -13z"/>
<path d="M5710 4024 c0 -17 22 -14 28 4 2 7 -3 12 -12 12 -9 0 -16 -7 -16 -16z"/>
<path d="M5103 3995 c-7 -8 -7 -16 1 -27 11 -15 14 -15 34 0 l22 17 -23 11
c-17 7 -26 7 -34 -1z"/>
<path d="M8411 3997 c-6 -6 -11 -14 -11 -18 0 -14 26 -17 42 -5 15 11 15 13
-1 23 -14 9 -21 9 -30 0z"/>
<path d="M2996 3985 c-90 -26 -166 -90 -221 -190 -40 -73 -54 -125 -32 -125 9
0 35 16 59 34 56 45 141 96 169 101 13 3 27 9 33 15 12 12 193 14 200 1 3 -4
21 -11 39 -14 19 -3 90 -33 158 -66 223 -109 295 -121 438 -76 103 33 244 136
219 160 -5 5 -52 -12 -100 -36 -10 -5 -29 -9 -42 -9 -14 0 -28 -4 -31 -10 -15
-25 -243 -6 -271 23 -4 4 -14 7 -22 7 -8 0 -29 11 -46 24 -17 12 -44 31 -61
40 -16 9 -43 25 -60 36 -51 32 -138 72 -180 82 -67 16 -196 18 -249 3z"/>
<path d="M5711 3913 c-1 -80 0 -83 22 -83 20 1 20 2 5 11 -12 6 -18 22 -18 45
0 29 5 37 22 42 21 5 21 6 3 12 -11 4 -23 18 -26 31 -4 14 -7 -11 -8 -58z"/>
<path d="M4540 3954 c0 -14 4 -23 10 -19 6 3 10 15 10 26 0 10 -4 19 -10 19
-5 0 -10 -12 -10 -26z"/>
<path d="M4842 3960 c0 -14 2 -19 5 -12 2 6 2 18 0 25 -3 6 -5 1 -5 -13z"/>
<path d="M4950 3970 c0 -5 5 -10 10 -10 6 0 10 5 10 10 0 6 -4 10 -10 10 -5 0
-10 -4 -10 -10z"/>
<path d="M5212 3950 c0 -19 2 -27 5 -17 2 9 2 25 0 35 -3 9 -5 1 -5 -18z"/>
<path d="M5291 3950 c0 -33 1 -34 10 -11 6 16 6 28 -1 35 -7 7 -10 -1 -9 -24z"/>
<path d="M5566 3972 c-2 -4 2 -18 10 -32 l13 -25 1 33 c0 29 -12 43 -24 24z"/>
<path d="M6231 3964 c0 -11 3 -14 6 -6 3 7 2 16 -1 19 -3 4 -6 -2 -5 -13z"/>
<path d="M6310 3961 c0 -25 6 -27 13 -6 4 8 2 17 -3 20 -6 4 -10 -3 -10 -14z"/>
<path d="M6800 3961 c0 -28 14 -33 28 -11 9 15 8 19 -4 24 -23 9 -24 8 -24
-13z"/>
<path d="M6922 3960 c0 -14 2 -19 5 -12 2 6 2 18 0 25 -3 6 -5 1 -5 -13z"/>
<path d="M7791 3925 l2 -60 7 50 c4 28 3 54 -1 60 -5 5 -8 -16 -8 -50z"/>
<path d="M8041 3963 c1 -10 5 -29 9 -43 l8 -25 3 28 c1 15 2 32 3 39 1 6 -5
13 -11 16 -8 2 -13 -4 -12 -15z"/>
<path d="M8241 3964 c0 -11 3 -14 6 -6 3 7 2 16 -1 19 -3 4 -6 -2 -5 -13z"/>
<path d="M8337 3973 c-10 -9 -9 -23 1 -23 5 0 9 7 9 15 0 17 -1 18 -10 8z"/>
<path d="M8689 3975 c0 -6 -2 -19 -4 -29 -3 -18 -2 -18 13 -3 13 13 14 20 4
29 -7 7 -12 8 -13 3z"/>
<path d="M5881 3954 c0 -11 3 -14 6 -6 3 7 2 16 -1 19 -3 4 -6 -2 -5 -13z"/>
<path d="M6150 3956 c0 -9 5 -16 10 -16 6 0 10 4 10 9 0 6 -4 13 -10 16 -5 3
-10 -1 -10 -9z"/>
<path d="M6999 3963 c0 -5 -3 -21 -5 -38 -3 -16 -3 -27 0 -24 3 3 7 14 9 25 1
10 6 25 10 32 5 7 4 12 -2 12 -6 0 -11 -3 -12 -7z"/>
<path d="M7267 3950 c3 -11 7 -20 9 -20 2 0 4 9 4 20 0 11 -4 20 -9 20 -5 0
-7 -9 -4 -20z"/>
<path d="M4172 3935 c0 -16 2 -22 5 -12 2 9 2 23 0 30 -3 6 -5 -1 -5 -18z"/>
<path d="M7870 3938 c0 -19 2 -20 10 -8 13 19 13 30 0 30 -5 0 -10 -10 -10
-22z"/>
<path d="M7968 3913 c5 -83 9 -90 11 -20 0 37 -2 67 -7 67 -4 0 -6 -21 -4 -47z"/>
<path d="M4641 3934 c0 -11 3 -14 6 -6 3 7 2 16 -1 19 -3 4 -6 -2 -5 -13z"/>
<path d="M8421 3934 c0 -11 3 -14 6 -6 3 7 2 16 -1 19 -3 4 -6 -2 -5 -13z"/>
<path d="M2456 3924 c-16 -43 -1 -154 21 -154 11 0 13 7 6 33 -4 17 -7 53 -6
79 3 47 -10 72 -21 42z"/>
<path d="M2572 3928 c-15 -15 -17 -184 -2 -193 6 -3 10 -17 10 -31 0 -13 4
-32 9 -42 5 -9 22 -43 37 -75 29 -59 41 -74 51 -64 3 3 -4 21 -15 39 -37 59
-62 174 -62 280 0 97 -4 110 -28 86z"/>
<path d="M5033 3885 c0 -27 2 -38 4 -22 2 15 2 37 0 50 -2 12 -4 0 -4 -28z"/>
<path d="M6570 3919 c0 -5 5 -7 10 -4 6 3 10 8 10 11 0 2 -4 4 -10 4 -5 0 -10
-5 -10 -11z"/>
<path d="M6735 3921 c-6 -11 9 -23 19 -14 9 9 7 23 -3 23 -6 0 -12 -4 -16 -9z"/>
<path d="M7592 3910 c0 -14 2 -19 5 -12 2 6 2 18 0 25 -3 6 -5 1 -5 -13z"/>
<path d="M8517 3924 c-4 -4 -7 -17 -7 -28 0 -19 1 -19 17 -3 12 11 14 20 7 27
-6 6 -13 7 -17 4z"/>
<path d="M8595 3919 c-4 -6 -5 -13 -2 -16 7 -7 27 6 27 18 0 12 -17 12 -25 -2z"/>
<path d="M4361 3904 c0 -11 3 -14 6 -6 3 7 2 16 -1 19 -3 4 -6 -2 -5 -13z"/>
<path d="M6480 3910 c0 -5 5 -10 10 -10 6 0 10 5 10 10 0 6 -4 10 -10 10 -5 0
-10 -4 -10 -10z"/>
<path d="M6630 3899 c0 -18 2 -19 15 -9 15 12 12 30 -6 30 -5 0 -9 -10 -9 -21z"/>
<path d="M4643 3875 c0 -22 2 -30 4 -17 2 12 2 30 0 40 -3 9 -5 -1 -4 -23z"/>
<path d="M5112 3890 c0 -14 2 -19 5 -12 2 6 2 18 0 25 -3 6 -5 1 -5 -13z"/>
<path d="M6923 3875 c0 -22 2 -30 4 -17 2 12 2 30 0 40 -3 9 -5 -1 -4 -23z"/>
<path d="M7873 3875 c0 -22 2 -30 4 -17 2 12 2 30 0 40 -3 9 -5 -1 -4 -23z"/>
<path d="M4841 3884 c0 -11 3 -14 6 -6 3 7 2 16 -1 19 -3 4 -6 -2 -5 -13z"/>
<path d="M8422 3880 c0 -14 2 -19 5 -12 2 6 2 18 0 25 -3 6 -5 1 -5 -13z"/>
<path d="M8682 3870 c0 -19 2 -27 5 -17 2 9 2 25 0 35 -3 9 -5 1 -5 -18z"/>
<path d="M4781 3874 c0 -11 3 -14 6 -6 3 7 2 16 -1 19 -3 4 -6 -2 -5 -13z"/>
<path d="M5577 3883 c-11 -10 -8 -51 3 -58 6 -4 10 8 10 29 0 37 -2 41 -13 29z"/>
<path d="M6155 3880 c-3 -5 -1 -10 4 -10 6 0 11 5 11 10 0 6 -2 10 -4 10 -3 0
-8 -4 -11 -10z"/>
<path d="M7273 3855 c0 -22 2 -30 4 -17 2 12 2 30 0 40 -3 9 -5 -1 -4 -23z"/>
<path d="M8051 3861 c-1 -27 2 -32 11 -23 8 8 8 17 0 34 -10 22 -11 21 -11
-11z"/>
<path d="M4190 3870 c0 -5 5 -10 11 -10 5 0 7 5 4 10 -3 6 -8 10 -11 10 -2 0
-4 -4 -4 -10z"/>
<path d="M4947 3866 c-6 -15 1 -26 15 -26 11 0 10 27 -1 34 -5 3 -11 0 -14 -8z"/>
<path d="M6232 3860 c0 -14 2 -19 5 -12 2 6 2 18 0 25 -3 6 -5 1 -5 -13z"/>
<path d="M7420 3870 c0 -5 5 -10 11 -10 5 0 7 5 4 10 -3 6 -8 10 -11 10 -2 0
-4 -4 -4 -10z"/>
<path d="M8327 3866 c-6 -15 1 -26 15 -26 4 0 8 9 8 20 0 23 -15 27 -23 6z"/>
<path d="M5291 3854 c0 -11 3 -14 6 -6 3 7 2 16 -1 19 -3 4 -6 -2 -5 -13z"/>
<path d="M5876 3861 c-4 -7 -5 -15 -2 -18 9 -9 19 4 14 18 -4 11 -6 11 -12 0z"/>
<path d="M6311 3854 c0 -11 3 -14 6 -6 3 7 2 16 -1 19 -3 4 -6 -2 -5 -13z"/>
<path d="M6801 3854 c0 -11 3 -14 6 -6 3 7 2 16 -1 19 -3 4 -6 -2 -5 -13z"/>
<path d="M5385 3850 c-3 -5 -1 -10 4 -10 6 0 11 5 11 10 0 6 -2 10 -4 10 -3 0
-8 -4 -11 -10z"/>
<path d="M5970 3850 c0 -5 5 -10 10 -10 6 0 10 5 10 10 0 6 -4 10 -10 10 -5 0
-10 -4 -10 -10z"/>
<path d="M6151 3844 c0 -11 3 -14 6 -6 3 7 2 16 -1 19 -3 4 -6 -2 -5 -13z"/>
<path d="M6405 3850 c-3 -5 -1 -10 4 -10 6 0 11 5 11 10 0 6 -2 10 -4 10 -3 0
-8 -4 -11 -10z"/>
<path d="M6990 3850 c0 -5 5 -10 11 -10 5 0 7 5 4 10 -3 6 -8 10 -11 10 -2 0
-4 -4 -4 -10z"/>
<path d="M7090 3850 c0 -5 5 -10 11 -10 5 0 7 5 4 10 -3 6 -8 10 -11 10 -2 0
-4 -4 -4 -10z"/>
<path d="M7791 3844 c0 -11 3 -14 6 -6 3 7 2 16 -1 19 -3 4 -6 -2 -5 -13z"/>
<path d="M5135 3840 c3 -5 11 -10 16 -10 6 0 7 5 4 10 -3 6 -11 10 -16 10 -6
0 -7 -4 -4 -10z"/>
<path d="M4878 3833 c7 -3 16 -2 19 1 4 3 -2 6 -13 5 -11 0 -14 -3 -6 -6z"/>
<path d="M8568 3833 c7 -3 16 -2 19 1 4 3 -2 6 -13 5 -11 0 -14 -3 -6 -6z"/>
<path d="M8040 3769 c0 -5 5 -7 10 -4 6 3 10 8 10 11 0 2 -4 4 -10 4 -5 0 -10
-5 -10 -11z"/>
</g>
</svg>
