<svg xmlns="http://www.w3.org/2000/svg" width="536" height="486.114" viewBox="0 0 536 486.114">
  <g id="undraw_package_arrived_63rf_1_" data-name="undraw_package_arrived_63rf (1)" transform="translate(0.001 0)">
    <path id="Path_43" data-name="Path 43" d="M393.356,285.856h0a74.357,74.357,0,0,1,74.357,74.357V538.365H319V360.213a74.357,74.357,0,0,1,74.357-74.357Z" transform="translate(-125.37 -112.343)" fill="#b4b4b4"/>
    <rect id="Rectangle_69" data-name="Rectangle 69" width="13.354" height="44.31" transform="translate(228.836 262.909)" fill="#fff"/>
    <rect id="Rectangle_70" data-name="Rectangle 70" width="44.31" height="40.061" transform="translate(245.832 310.862)" fill="#fff"/>
    <rect id="Rectangle_71" data-name="Rectangle 71" width="44.31" height="44.31" transform="translate(245.832 262.909)" fill="#fff"/>
    <path id="Path_44" data-name="Path 44" d="M642.5,457.057h13.354v-.911A39.047,39.047,0,0,0,642.5,426.709Z" transform="translate(-348.716 -197.789)" fill="#fff"/>
    <path id="Path_45" data-name="Path 45" d="M563.5,450.767h44.31V417.581a38.962,38.962,0,0,0-22.155-6.875h0a38.961,38.961,0,0,0-22.155,6.875Z" transform="translate(-317.668 -191.5)" fill="#fff"/>
    <path id="Path_46" data-name="Path 46" d="M548.854,561.706H535.5v30.349a9.712,9.712,0,0,0,9.712,9.712h3.642Z" transform="translate(-306.664 -250.844)" fill="#fff"/>
    <path id="Path_47" data-name="Path 47" d="M642.5,561.706v40.061h3.642a9.712,9.712,0,0,0,9.712-9.712V561.706Z" transform="translate(-348.716 -250.844)" fill="#fff"/>
    <path id="Path_48" data-name="Path 48" d="M548.854,457.057V426.709A39.047,39.047,0,0,0,535.5,456.146v.911Z" transform="translate(-306.664 -197.789)" fill="#fff"/>
    <rect id="Rectangle_72" data-name="Rectangle 72" width="13.354" height="44.31" transform="translate(293.784 262.909)" fill="#fff"/>
    <circle id="Ellipse_7" data-name="Ellipse 7" cx="7.891" cy="7.891" r="7.891" transform="translate(323.83 306.006)" fill="#3f3d56"/>
    <rect id="Rectangle_73" data-name="Rectangle 73" width="10.481" height="34.778" transform="translate(72.468 238.164)" fill="#b4b4b4"/>
    <rect id="Rectangle_74" data-name="Rectangle 74" width="34.778" height="34.778" transform="translate(85.808 238.164)" fill="#b4b4b4"/>
    <rect id="Rectangle_75" data-name="Rectangle 75" width="10.481" height="34.778" transform="translate(123.445 238.164)" fill="#b4b4b4"/>
    <path id="Path_49" data-name="Path 49" d="M361.872,421.808h10.481v-.715a30.647,30.647,0,0,0-10.481-23.1Z" transform="translate(-238.427 -186.502)" fill="#b4b4b4"/>
    <rect id="Rectangle_76" data-name="Rectangle 76" width="34.778" height="31.443" transform="translate(85.808 275.801)" fill="#b4b4b4"/>
    <path id="Path_50" data-name="Path 50" d="M288.371,503.945H277.89v23.821a7.623,7.623,0,0,0,7.623,7.623h2.859Z" transform="translate(-205.422 -228.144)" fill="#b4b4b4"/>
    <path id="Path_51" data-name="Path 51" d="M361.872,503.945v31.443h2.858a7.622,7.622,0,0,0,7.623-7.623V503.945Z" transform="translate(-238.427 -228.144)" fill="#b4b4b4"/>
    <path id="Path_52" data-name="Path 52" d="M288.371,421.808V397.989a30.648,30.648,0,0,0-10.481,23.1v.715Z" transform="translate(-205.422 -186.502)" fill="#b4b4b4"/>
    <path id="Path_53" data-name="Path 53" d="M299.866,416.872h34.778V390.824a30.58,30.58,0,0,0-17.389-5.4h0a30.581,30.581,0,0,0-17.389,5.4Z" transform="translate(-214.058 -181.566)" fill="#b4b4b4"/>
    <path id="Path_54" data-name="Path 54" d="M342.928,555.529H254.315a2.146,2.146,0,0,1-2.144-2.144v-5.717a2.146,2.146,0,0,1,2.144-2.144h88.613a2.146,2.146,0,0,1,2.144,2.144v5.717A2.146,2.146,0,0,1,342.928,555.529Z" transform="translate(-195.314 -244.485)" fill="#b4b4b4"/>
    <rect id="Rectangle_77" data-name="Rectangle 77" width="10.481" height="34.778" transform="translate(402.065 238.164)" fill="#b4b4b4"/>
    <rect id="Rectangle_78" data-name="Rectangle 78" width="34.778" height="34.778" transform="translate(415.405 238.164)" fill="#b4b4b4"/>
    <rect id="Rectangle_79" data-name="Rectangle 79" width="10.481" height="34.778" transform="translate(453.042 238.164)" fill="#b4b4b4"/>
    <path id="Path_55" data-name="Path 55" d="M904.871,421.808h10.481v-.715a30.647,30.647,0,0,0-10.481-23.1Z" transform="translate(-451.83 -186.502)" fill="#b4b4b4"/>
    <rect id="Rectangle_80" data-name="Rectangle 80" width="34.778" height="31.443" transform="translate(415.405 275.801)" fill="#b4b4b4"/>
    <path id="Path_56" data-name="Path 56" d="M831.371,503.945H820.89v23.821a7.623,7.623,0,0,0,7.622,7.623h2.859Z" transform="translate(-418.824 -228.144)" fill="#f2f2f2"/>
    <path id="Path_57" data-name="Path 57" d="M904.871,503.945v31.443h2.859a7.622,7.622,0,0,0,7.623-7.623V503.945Z" transform="translate(-451.83 -228.144)" fill="#b4b4b4"/>
    <path id="Path_58" data-name="Path 58" d="M831.371,421.808V397.989a30.648,30.648,0,0,0-10.481,23.1v.715Z" transform="translate(-418.824 -186.502)" fill="#b4b4b4"/>
    <path id="Path_59" data-name="Path 59" d="M842.866,416.872h34.778V390.824a30.58,30.58,0,0,0-17.389-5.4h0a30.582,30.582,0,0,0-17.389,5.4Z" transform="translate(-427.461 -181.566)" fill="#b4b4b4"/>
    <path id="Path_60" data-name="Path 60" d="M885.928,555.529H797.315a2.146,2.146,0,0,1-2.144-2.144v-5.717a2.146,2.146,0,0,1,2.144-2.144h88.613a2.146,2.146,0,0,1,2.144,2.144v5.717A2.146,2.146,0,0,1,885.928,555.529Z" transform="translate(-408.717 -244.485)" fill="#e6e6e6"/>
    <path id="Path_61" data-name="Path 61" d="M670.057,528.807H199.031A20.053,20.053,0,0,1,179,508.776V203.459a20.053,20.053,0,0,1,20.031-20.031H670.057a20.053,20.053,0,0,1,20.031,20.031V508.776A20.053,20.053,0,0,1,670.057,528.807ZM199.031,184.642a18.838,18.838,0,0,0-18.817,18.817V508.776a18.838,18.838,0,0,0,18.817,18.817H670.057a18.838,18.838,0,0,0,18.817-18.817V203.459a18.838,18.838,0,0,0-18.817-18.817Z" transform="translate(-166.557 -102.178)" fill="#ccc"/>
    <path id="Path_62" data-name="Path 62" d="M178.56,170.743a20.075,20.075,0,0,1-3.215-39.889L421.513,49.972a29.843,29.843,0,0,1,9.662-.012l246.5,80.908a20.071,20.071,0,1,1-6.5,39.614c-2.655-.379-242.507-34.627-244.695-34.717-2.179.09-242.264,34.371-244.689,34.717a20.117,20.117,0,0,1-3.233.262Z" transform="translate(-158.5 -49.572)" fill="#f55c2c"/>
    <path id="Path_63" data-name="Path 63" d="M767.28,657.384a5.692,5.692,0,0,0-1.881-8.522l1.125-12.958-7.708-2.6-1.332,18.321a5.723,5.723,0,0,0,9.8,5.763Z" transform="translate(-393.715 -278.981)" fill="#ffb8b8"/>
    <path id="Path_64" data-name="Path 64" d="M672.174,772.049h-6.94l-3.3-26.766h10.242Z" transform="translate(-260.145 -292.901)" fill="#ffb8b8"/>
    <path id="Path_65" data-name="Path 65" d="M653.749,786.112h13.383v8.426H645.323a8.426,8.426,0,0,1,8.426-8.426Z" transform="translate(-253.617 -308.947)" fill="#2f2e41"/>
    <path id="Path_66" data-name="Path 66" d="M642.278,743.291l-6.739,1.656-9.594-25.2,9.946-2.444Z" transform="translate(-246.001 -281.903)" fill="#ffb8b8"/>
    <path id="Path_67" data-name="Path 67" d="M8.426,0H21.809V8.426H0A8.426,8.426,0,0,1,8.426,0Z" transform="matrix(0.971, -0.239, 0.239, 0.971, 376.066, 464.312)" fill="#2f2e41"/>
    <path id="Path_68" data-name="Path 68" d="M801.794,761.787a2.555,2.555,0,0,1-2.547-2.294L791.262,685.1l-6.948,22.747,9.841,35.529a2.565,2.565,0,0,1-1.521,3.069l-7.824,3.129a2.567,2.567,0,0,1-3.378-1.539l-12.061-34.6a31.324,31.324,0,0,1-1.721-11.773l1.684-37.344L813.67,666.2l-.692,92.393a2.582,2.582,0,0,1-2.375,2.541l-8.61.648C801.926,761.785,801.86,761.787,801.794,761.787Z" transform="translate(-397.888 -291.172)" fill="#2f2e41"/>
    <circle id="Ellipse_8" data-name="Ellipse 8" cx="14.908" cy="14.908" r="14.908" transform="translate(381.656 260.686)" fill="#ffb8b8"/>
    <path id="Path_69" data-name="Path 69" d="M804.75,618.062c-3.926,0-8.8-.321-13.85-.653-6.9-.454-14.026-.923-19.348-.615a4.23,4.23,0,0,1-3.783-1.647c-5.487-7.025,2.976-34.421,3.339-35.584L778,548.929l.3.067-.3-.067c1.515-6.737,6.356-11.707,12.633-12.97a14.765,14.765,0,0,1,15.2,6.3q.29.408.58.837c11.868,17.576,5.155,61.243,4.705,64.061.627.751,4.017,5,3.085,7.946a3.851,3.851,0,0,1-3.061,2.43A28.536,28.536,0,0,1,804.75,618.062Z" transform="translate(-397.223 -240.608)" fill="#ccc"/>
    <path id="Path_70" data-name="Path 70" d="M770.493,618.726a15.884,15.884,0,0,1-5.628-1.521c-1.056-.439-4.268-1.776-.368-35.856,1.916-16.741,4.66-33.365,4.687-33.531l.026-.16.148-.067c.071-.032,7.079-3.245,8.3-7.373q.064-.215.142-.416a3.789,3.789,0,0,1,4.706-2.312,3.982,3.982,0,0,1,3,4.545,27.945,27.945,0,0,1-2.422,7.764c-3.3,6.8-5.532,24.843-5.554,25.024-.126,1.54-3.119,38.041-3.7,40.811a3.708,3.708,0,0,1-1.659,2.726A3.545,3.545,0,0,1,770.493,618.726Z" transform="translate(-395.923 -241.257)" fill="#2f2e41"/>
    <path id="Path_71" data-name="Path 71" d="M801.043,617.861a1.225,1.225,0,0,1-.752-.258c-4.386-3.333,2.712-43.735,6.922-57.674.843-2.791,1.594-5.182,2.231-7.105h0a54.176,54.176,0,0,0,2.421-10.626c.232-1.958.735-3.076,1.54-3.419a1.956,1.956,0,0,1,1.954.482c3.888-.191,7.667,1.4,11.17,3.145l3.151,1.573,3.536,62.611c-.1,4-7.977,6.817-11.414,7-5.516.289-15.423,1.187-19.788,3.951a1.825,1.825,0,0,1-.973.326Z" transform="translate(-410.186 -241.791)" fill="#2f2e41"/>
    <path id="Path_72" data-name="Path 72" d="M763.679,611.47c-.052,0-.1,0-.157,0l-7.143-.439A2.567,2.567,0,0,1,754,608.08l3.232-21.414,6.085-30.045a5.389,5.389,0,0,1,6.9-4.073h0a5.419,5.419,0,0,1,3.707,6l-4.834,30.1-2.862,20.605a2.58,2.58,0,0,1-2.544,2.214Z" transform="translate(-392.524 -247.148)" fill="#2f2e41"/>
    <path id="Path_73" data-name="Path 73" d="M801.13,505.223a15.906,15.906,0,1,0-2.98-31.458,18.284,18.284,0,0,0-10.91-2.989c-3.82.341-7.6,2.609-9.027,6.168s.106,8.252,3.658,9.7c2.277.927,4.849.478,7.279.1s5.082-.618,7.2.636,3.066,4.616,1.172,6.184a6.518,6.518,0,0,0-1.872,7.175C796.6,503.2,799.2,505.181,801.13,505.223Z" transform="translate(-401.843 -215.087)" fill="#2f2e41"/>
    <path id="Path_74" data-name="Path 74" d="M752.38,529.751a14.656,14.656,0,1,0,0,29.313h0a14.656,14.656,0,1,0,0-29.312Z" transform="translate(-386.14 -238.286)" fill="#f55c2c"/>
    <path id="Path_395" data-name="Path 395" d="M755.81,555.479a1.778,1.778,0,0,1-1.07-.356l-.019-.014-4.03-3.083a1.791,1.791,0,1,1,2.18-2.843l2.611,2,6.169-8.048a1.791,1.791,0,0,1,2.51-.331h0l-.038.053.039-.053a1.793,1.793,0,0,1,.331,2.511l-7.256,9.462a1.791,1.791,0,0,1-1.425.7Z" transform="translate(-390.96 -243.271)" fill="#fff"/>
    <path id="Path_75" data-name="Path 75" d="M776.056,596.706H724.616a5.208,5.208,0,0,0-5.209,5.209v51.439a5.208,5.208,0,0,0,5.209,5.209h51.439a5.208,5.208,0,0,0,5.209-5.209V601.915a5.207,5.207,0,0,0-5.209-5.209Z" transform="translate(-378.941 -264.599)" fill="#f55c2c"/>
    <path id="Path_76" data-name="Path 76" d="M772.446,646.766,748.159,651.5a5.541,5.541,0,0,1-6.49-4.375l-1.867-9.587a5.541,5.541,0,0,1,4.375-6.491l24.287-4.73a5.541,5.541,0,0,1,6.49,4.375l1.867,9.587A5.541,5.541,0,0,1,772.446,646.766Z" transform="translate(-386.916 -276.196)" fill="#fff"/>
    <path id="Path_77" data-name="Path 77" d="M772.638,639.744,754.1,643.354a1.3,1.3,0,1,1-.5-2.556l18.535-3.609a1.3,1.3,0,0,1,.5,2.557Z" transform="translate(-391.967 -280.499)" fill="#f55c2c"/>
    <path id="Path_78" data-name="Path 78" d="M772.5,648.55l-9.587,1.867a1.3,1.3,0,1,1-.5-2.557L772,645.994a1.3,1.3,0,1,1,.5,2.556Z" transform="translate(-395.428 -283.96)" fill="#f55c2c"/>
    <path id="Path_79" data-name="Path 79" d="M781.265,601.915v6.837H719.407v-6.837a5.207,5.207,0,0,1,5.209-5.209h51.439A5.207,5.207,0,0,1,781.265,601.915Z" transform="translate(-378.941 -264.599)" fill="#3f3d56"/>
    <path id="Path_80" data-name="Path 80" d="M809.607,606.679a5.692,5.692,0,0,1,8.635-1.27l11.712-5.657,5.174,6.279-16.652,7.757a5.723,5.723,0,0,1-8.869-7.108Z" transform="translate(-414.049 -265.796)" fill="#ffb8b8"/>
    <path id="Path_81" data-name="Path 81" d="M834.206,591.758a2.569,2.569,0,0,1-2.5-1.967l-1.7-7.072a2.557,2.557,0,0,1,1.178-2.8l10.26-6.14-5.244-19.2a6.568,6.568,0,0,1,.23-4.128h0a6.527,6.527,0,0,1,12.27.377l5.79,17.679a10.669,10.669,0,0,1-3.9,12L835.71,591.27A2.565,2.565,0,0,1,834.206,591.758Z" transform="translate(-422.379 -244.8)" fill="#2f2e41"/>
    <path id="Path_82" data-name="Path 82" d="M824.422,849.642H762.508a.607.607,0,1,1,0-1.214h61.913a.607.607,0,1,1,0,1.214Z" transform="translate(-395.641 -363.528)" fill="#ccc"/>
  </g>
</svg>
