<?xml version="1.0" encoding="UTF-8" standalone="no"?>
<!-- Created with Inkscape (http://www.inkscape.org/) -->

<svg
   xmlns:dc="http://purl.org/dc/elements/1.1/"
   xmlns:cc="http://creativecommons.org/ns#"
   xmlns:rdf="http://www.w3.org/1999/02/22-rdf-syntax-ns#"
   xmlns:svg="http://www.w3.org/2000/svg"
   xmlns="http://www.w3.org/2000/svg"
   xmlns:sodipodi="http://sodipodi.sourceforge.net/DTD/sodipodi-0.dtd"
   xmlns:inkscape="http://www.inkscape.org/namespaces/inkscape"
   width="700mm"
   height="700mm"
   viewBox="0 0 700 700"
   version="1.1"
   id="svg5213"
   inkscape:export-filename="C:\Users\alex\sites\kyocera-logo-0.png"
   inkscape:export-xdpi="148.6263"
   inkscape:export-ydpi="148.6263"
   inkscape:version="0.92.3 (2405546, 2018-03-11)"
   sodipodi:docname="kyocera-logo.svg">
  <defs
     id="defs5207">
    <clipPath
       clipPathUnits="userSpaceOnUse"
       id="clipPath208">
      <path
         d="m 227.38,23.018 h 158.592 v 61.92 H 227.38 Z"
         id="path206"
         inkscape:connector-curvature="0" />
    </clipPath>
  </defs>
  <sodipodi:namedview
     id="base"
     pagecolor="#ffffff"
     bordercolor="#666666"
     borderopacity="1.0"
     inkscape:pageopacity="0.0"
     inkscape:pageshadow="2"
     inkscape:zoom="0.12374369"
     inkscape:cx="-406.29033"
     inkscape:cy="2216.884"
     inkscape:document-units="mm"
     inkscape:current-layer="g198"
     showgrid="false"
     inkscape:window-width="1600"
     inkscape:window-height="838"
     inkscape:window-x="-8"
     inkscape:window-y="-8"
     inkscape:window-maximized="1" />
  <metadata
     id="metadata5210">
    <rdf:RDF>
      <cc:Work
         rdf:about="">
        <dc:format>image/svg+xml</dc:format>
        <dc:type
           rdf:resource="http://purl.org/dc/dcmitype/StillImage" />
        <dc:title></dc:title>
      </cc:Work>
    </rdf:RDF>
  </metadata>
  <g
     inkscape:label="Camada 1"
     inkscape:groupmode="layer"
     id="layer1"
     transform="translate(0,403)">
    <path
       d="m 213.08219,-14.368283 h -12.92753 v -77.258286 h 12.92753 z"
       style="fill:#231f20;fill-opacity:1;fill-rule:nonzero;stroke:none;stroke-width:3.45103621"
       id="path196"
       inkscape:connector-curvature="0"
       inkscape:export-xdpi="19.213556"
       inkscape:export-ydpi="19.213556" />
    <g
       id="g198"
       transform="matrix(4.773223,0,0,-4.773223,120.61437,177.05218)">
      <path
         d="m 22.814693,48.614556 5.188242,7.673913 H 24.86295 l -5.28657,-7.678974 5.998724,-8.506809 h 3.394481 z"
         style="fill:#231f20;fill-opacity:1;fill-rule:nonzero;stroke:none;stroke-width:0.72299916"
         id="path200"
         inkscape:connector-curvature="0"
         inkscape:export-xdpi="19.213556"
         inkscape:export-ydpi="19.213556" />
    </g>
    <g
       transform="matrix(3.4510363,0,0,-3.4510363,-706.405,160.092)"
       id="g202"
       inkscape:export-xdpi="19.213556"
       inkscape:export-ydpi="19.213556">
      <g
         id="g204"
         clip-path="url(#clipPath208)">
        <g
           id="g210"
           transform="translate(370.4331,50.553)">
          <path
             d="m 0,0 h 12.293 v 19.777 c 0,1.441 -1.169,2.61 -2.613,2.61 H -2.147 V 18.983 H 8.544 V 13.114 H 0 c -1.442,0 -2.611,-1.167 -2.611,-2.612 V 2.613 C -2.611,1.17 -1.44,0 0,0 M 1.136,9.712 H 8.545 V 3.403 H 1.136 Z"
             style="fill:#231f20;fill-opacity:1;fill-rule:nonzero;stroke:none"
             id="path212"
             inkscape:connector-curvature="0" />
        </g>
        <g
           id="g214"
           transform="translate(362.2258,72.9396)">
          <path
             d="m 0,0 c 1.442,0 2.613,-1.169 2.613,-2.61 v -7.356 c 0,-1.441 -1.171,-2.611 -2.613,-2.611 h -1.512 l 5.434,-9.81 h -4.103 l -7.26,13.114 h 6.305 v 5.87 h -7.558 v -18.984 h -3.744 V 0 Z"
             style="fill:#231f20;fill-opacity:1;fill-rule:nonzero;stroke:none"
             id="path216"
             inkscape:connector-curvature="0" />
        </g>
        <g
           id="g218"
           transform="translate(333.1238,70.3296)">
          <path
             d="M 0,0 C 0,1.441 1.17,2.61 2.611,2.61 H 13.492 V -0.793 H 3.747 v -5.87 h 9.413 v -3.401 H 3.747 v -6.309 h 9.745 v -3.404 H 2.611 C 1.17,-19.777 0,-18.606 0,-17.164 Z"
             style="fill:#231f20;fill-opacity:1;fill-rule:nonzero;stroke:none"
             id="path220"
             inkscape:connector-curvature="0" />
        </g>
        <g
           id="g222"
           transform="translate(316.9771,70.3296)">
          <path
             d="M 0,0 C 0,1.441 1.17,2.61 2.612,2.61 H 13.337 V -0.793 H 3.745 v -15.58 h 9.592 v -3.404 H 2.612 C 1.17,-19.777 0,-18.606 0,-17.164 Z"
             style="fill:#231f20;fill-opacity:1;fill-rule:nonzero;stroke:none"
             id="path224"
             inkscape:connector-curvature="0" />
        </g>
        <g
           id="g226"
           transform="translate(298.2347,70.3296)">
          <path
             d="M 0,0 C 0,1.441 1.169,2.61 2.613,2.61 H 12.87 c 1.442,0 2.611,-1.169 2.611,-2.611 v -17.163 c 0,-1.442 -1.169,-2.613 -2.611,-2.613 H 2.613 C 1.169,-19.777 0,-18.606 0,-17.164 Z m 3.745,-16.373 h 7.99 v 15.58 h -7.99 z"
             style="fill:#231f20;fill-opacity:1;fill-rule:nonzero;stroke:none"
             id="path228"
             inkscape:connector-curvature="0" />
        </g>
        <g
           id="g230"
           transform="translate(280.3609,62.5793)">
          <path
             d="M 0,0 V 10.36 H 3.746 V 0.79 h 7.121 v 9.57 h 3.744 V -9.413 c 0,-1.443 -1.168,-2.613 -2.611,-2.613 L 0.901,-12.028 v 3.405 c 0,0 9.571,-0.002 9.966,-0.002 v 6.014 H 2.61 C 1.169,-2.611 0,-1.443 0,0"
             style="fill:#231f20;fill-opacity:1;fill-rule:nonzero;stroke:none"
             id="path232"
             inkscape:connector-curvature="0" />
        </g>
        <g
           id="g234"
           transform="translate(239.5727,71.8201)">
          <path
             d="M 0,0 H -10.074 V -10.073 Z"
             style="fill:#e41b2f;fill-opacity:1;fill-rule:nonzero;stroke:none"
             id="path236"
             inkscape:connector-curvature="0" />
        </g>
        <g
           id="g238"
           transform="translate(239.5727,51.6724)">
          <path
             d="M 0,0 H -10.074 V 10.075 Z"
             style="fill:#e41b2f;fill-opacity:1;fill-rule:nonzero;stroke:none"
             id="path240"
             inkscape:connector-curvature="0" />
        </g>
        <g
           id="g242"
           transform="translate(239.5727,51.6724)">
          <path
             d="M 0,0 10.073,10.075 0,20.148 Z"
             style="fill:#e41b2f;fill-opacity:1;fill-rule:nonzero;stroke:none"
             id="path244"
             inkscape:connector-curvature="0" />
        </g>
        <g
           id="g246"
           transform="translate(249.6455,71.8201)">
          <path
             d="m 0,0 h -10.073 l 6.331,6.331 H 6.33 V -3.742 L 0,-10.073 Z"
             style="fill:#e41b2f;fill-opacity:1;fill-rule:nonzero;stroke:none"
             id="path248"
             inkscape:connector-curvature="0" />
        </g>
        <g
           id="g250"
           transform="translate(249.6455,51.6724)">
          <path
             d="m 0,0 h -10.073 l 6.331,-6.329 H 6.33 V 3.742 L 0,10.075 Z"
             style="fill:#e41b2f;fill-opacity:1;fill-rule:nonzero;stroke:none"
             id="path252"
             inkscape:connector-curvature="0" />
        </g>
      </g>
    </g>
  </g>
</svg>
